<svg xmlns="http://www.w3.org/2000/svg" xmlns:xlink="http://www.w3.org/1999/xlink" width="512" zoomAndPan="magnify" viewBox="0 0 384 383.999986" height="512" preserveAspectRatio="xMidYMid meet" version="1.0"><defs><g/><clipPath id="c2cc95d883"><path d="M 164 135 L 220 135 L 220 208.085938 L 164 208.085938 Z M 164 135 " clip-rule="nonzero"/></clipPath><clipPath id="8f8b154029"><path d="M 164 62.585938 L 220 62.585938 L 220 136 L 164 136 Z M 164 62.585938 " clip-rule="nonzero"/></clipPath><clipPath id="a5ae3c21e9"><path d="M 119.070312 108 L 192 108 L 192 163 L 119.070312 163 Z M 119.070312 108 " clip-rule="nonzero"/></clipPath><clipPath id="cb8f58c2b6"><path d="M 191 108 L 264.570312 108 L 264.570312 163 L 191 163 Z M 191 108 " clip-rule="nonzero"/></clipPath><clipPath id="aace0c1630"><rect x="0" width="264" y="0" height="20"/></clipPath></defs><rect x="-38.4" width="460.8" fill="#ffffff" y="-38.399999" height="460.799983" fill-opacity="1"/><rect x="-38.4" width="460.8" fill="#ffffff" y="-38.399999" height="460.799983" fill-opacity="1"/><g clip-path="url(#c2cc95d883)"><path fill="#00bfa6" d="M 207.882812 208.363281 L 176.074219 208.363281 C 169.933594 208.363281 164.910156 203.339844 164.910156 197.199219 L 164.910156 181.761719 L 172.351562 181.761719 L 172.351562 197.199219 C 172.351562 199.246094 174.027344 200.921875 176.074219 200.921875 L 207.882812 200.921875 C 209.929688 200.921875 211.605469 199.246094 211.605469 197.199219 L 211.605469 135.511719 L 219.046875 135.511719 L 219.046875 197.199219 C 219.046875 203.339844 214.0625 208.363281 207.882812 208.363281 Z M 207.882812 208.363281 " fill-opacity="1" fill-rule="nonzero"/></g><g clip-path="url(#8f8b154029)"><path fill="#0077b6" d="M 172.351562 135.511719 L 164.910156 135.511719 L 164.910156 73.824219 C 164.910156 67.683594 169.933594 62.660156 176.074219 62.660156 L 207.882812 62.660156 C 214.023438 62.660156 219.046875 67.683594 219.046875 73.824219 L 219.046875 89.261719 L 211.605469 89.261719 L 211.605469 73.824219 C 211.605469 71.777344 209.929688 70.101562 207.882812 70.101562 L 176.074219 70.101562 C 174.027344 70.101562 172.351562 71.777344 172.351562 73.824219 Z M 172.351562 135.511719 " fill-opacity="1" fill-rule="nonzero"/></g><g clip-path="url(#a5ae3c21e9)"><path fill="#0077b6" d="M 191.996094 162.597656 L 130.308594 162.597656 C 124.167969 162.597656 119.144531 157.574219 119.144531 151.4375 L 119.144531 119.625 C 119.144531 113.484375 124.167969 108.460938 130.308594 108.460938 L 145.75 108.460938 L 145.75 115.902344 L 130.308594 115.902344 C 128.261719 115.902344 126.585938 117.578125 126.585938 119.625 L 126.585938 151.4375 C 126.585938 153.484375 128.261719 155.15625 130.308594 155.15625 L 191.996094 155.15625 Z M 191.996094 162.597656 " fill-opacity="1" fill-rule="nonzero"/></g><g clip-path="url(#cb8f58c2b6)"><path fill="#00bfa6" d="M 253.6875 162.597656 L 238.246094 162.597656 L 238.246094 155.15625 L 253.6875 155.15625 C 255.734375 155.15625 257.40625 153.484375 257.40625 151.4375 L 257.40625 119.625 C 257.40625 117.578125 255.734375 115.902344 253.6875 115.902344 L 191.996094 115.902344 L 191.996094 108.460938 L 253.6875 108.460938 C 259.824219 108.460938 264.847656 113.484375 264.847656 119.625 L 264.847656 151.4375 C 264.847656 157.574219 259.824219 162.597656 253.6875 162.597656 Z M 253.6875 162.597656 " fill-opacity="1" fill-rule="nonzero"/></g><g transform="matrix(1, 0, 0, 1, 75, 230)"><g clip-path="url(#aace0c1630)"><g fill="#003b73" fill-opacity="1"><g transform="translate(1.796925, 14.228589)"><g><path d="M 6.078125 -3.796875 L 6.078125 0 L 4.078125 0 L 4.078125 -3.765625 L -0.140625 -10.75 L 2 -10.75 L 5.140625 -5.515625 L 8.328125 -10.75 L 10.296875 -10.75 Z M 6.078125 -3.796875 "/></g></g></g><g fill="#003b73" fill-opacity="1"><g transform="translate(14.253897, 14.228589)"><g><path d="M 8.421875 -2.484375 L 3.046875 -2.484375 L 1.984375 0 L -0.078125 0 L 4.765625 -10.75 L 6.734375 -10.75 L 11.578125 0 L 9.484375 0 Z M 7.75 -4.0625 L 5.734375 -8.75 L 3.71875 -4.0625 Z M 7.75 -4.0625 "/></g></g></g><g fill="#003b73" fill-opacity="1"><g transform="translate(28.062553, 14.228589)"><g><path d="M 4.78125 0.15625 C 3.945312 0.15625 3.144531 0.0390625 2.375 -0.1875 C 1.601562 -0.425781 0.988281 -0.742188 0.53125 -1.140625 L 1.234375 -2.6875 C 1.671875 -2.34375 2.207031 -2.054688 2.84375 -1.828125 C 3.488281 -1.609375 4.132812 -1.5 4.78125 -1.5 C 5.570312 -1.5 6.164062 -1.625 6.5625 -1.875 C 6.957031 -2.132812 7.15625 -2.476562 7.15625 -2.90625 C 7.15625 -3.207031 7.046875 -3.457031 6.828125 -3.65625 C 6.609375 -3.863281 6.328125 -4.019531 5.984375 -4.125 C 5.648438 -4.238281 5.191406 -4.367188 4.609375 -4.515625 C 3.785156 -4.710938 3.117188 -4.90625 2.609375 -5.09375 C 2.109375 -5.289062 1.675781 -5.597656 1.3125 -6.015625 C 0.945312 -6.429688 0.765625 -6.988281 0.765625 -7.6875 C 0.765625 -8.28125 0.925781 -8.820312 1.25 -9.3125 C 1.570312 -9.800781 2.054688 -10.1875 2.703125 -10.46875 C 3.359375 -10.757812 4.15625 -10.90625 5.09375 -10.90625 C 5.75 -10.90625 6.394531 -10.820312 7.03125 -10.65625 C 7.664062 -10.488281 8.210938 -10.253906 8.671875 -9.953125 L 8.046875 -8.40625 C 7.578125 -8.675781 7.085938 -8.882812 6.578125 -9.03125 C 6.066406 -9.175781 5.566406 -9.25 5.078125 -9.25 C 4.296875 -9.25 3.710938 -9.113281 3.328125 -8.84375 C 2.941406 -8.582031 2.75 -8.226562 2.75 -7.78125 C 2.75 -7.476562 2.859375 -7.226562 3.078125 -7.03125 C 3.296875 -6.84375 3.570312 -6.691406 3.90625 -6.578125 C 4.25 -6.460938 4.710938 -6.332031 5.296875 -6.1875 C 6.097656 -6 6.753906 -5.804688 7.265625 -5.609375 C 7.773438 -5.410156 8.210938 -5.101562 8.578125 -4.6875 C 8.941406 -4.28125 9.125 -3.734375 9.125 -3.046875 C 9.125 -2.453125 8.960938 -1.910156 8.640625 -1.421875 C 8.316406 -0.941406 7.828125 -0.554688 7.171875 -0.265625 C 6.515625 0.015625 5.71875 0.15625 4.78125 0.15625 Z M 4.78125 0.15625 "/></g></g></g><g fill="#003b73" fill-opacity="1"><g transform="translate(40.028011, 14.228589)"><g><path d="M 9.5 -1.671875 L 9.5 0 L 1.4375 0 L 1.4375 -10.75 L 9.296875 -10.75 L 9.296875 -9.078125 L 3.4375 -9.078125 L 3.4375 -6.28125 L 8.625 -6.28125 L 8.625 -4.640625 L 3.4375 -4.640625 L 3.4375 -1.671875 Z M 9.5 -1.671875 "/></g></g></g><g fill="#003b73" fill-opacity="1"><g transform="translate(52.62322, 14.228589)"><g><path d="M 9.5 -1.671875 L 9.5 0 L 1.4375 0 L 1.4375 -10.75 L 9.296875 -10.75 L 9.296875 -9.078125 L 3.4375 -9.078125 L 3.4375 -6.28125 L 8.625 -6.28125 L 8.625 -4.640625 L 3.4375 -4.640625 L 3.4375 -1.671875 Z M 9.5 -1.671875 "/></g></g></g><g fill="#003b73" fill-opacity="1"><g transform="translate(65.218429, 14.228589)"><g><path d="M 11 -10.75 L 11 0 L 9.359375 0 L 3.421875 -7.28125 L 3.421875 0 L 1.4375 0 L 1.4375 -10.75 L 3.09375 -10.75 L 9.015625 -3.46875 L 9.015625 -10.75 Z M 11 -10.75 "/></g></g></g><g fill="#003b73" fill-opacity="1"><g transform="translate(79.964043, 14.228589)"><g/></g></g><g fill="#003b73" fill-opacity="1"><g transform="translate(86.507412, 14.228589)"><g><path d="M 11.3125 0 L 11.296875 -7.125 L 7.765625 -1.234375 L 6.875 -1.234375 L 3.34375 -7.03125 L 3.34375 0 L 1.4375 0 L 1.4375 -10.75 L 3.09375 -10.75 L 7.359375 -3.625 L 11.546875 -10.75 L 13.1875 -10.75 L 13.203125 0 Z M 11.3125 0 "/></g></g></g><g fill="#003b73" fill-opacity="1"><g transform="translate(103.480232, 14.228589)"><g><path d="M 9.5 -1.671875 L 9.5 0 L 1.4375 0 L 1.4375 -10.75 L 9.296875 -10.75 L 9.296875 -9.078125 L 3.4375 -9.078125 L 3.4375 -6.28125 L 8.625 -6.28125 L 8.625 -4.640625 L 3.4375 -4.640625 L 3.4375 -1.671875 Z M 9.5 -1.671875 "/></g></g></g><g fill="#003b73" fill-opacity="1"><g transform="translate(116.075441, 14.228589)"><g><path d="M 1.4375 -10.75 L 6.140625 -10.75 C 7.285156 -10.75 8.300781 -10.523438 9.1875 -10.078125 C 10.082031 -9.640625 10.773438 -9.007812 11.265625 -8.1875 C 11.765625 -7.375 12.015625 -6.4375 12.015625 -5.375 C 12.015625 -4.3125 11.765625 -3.375 11.265625 -2.5625 C 10.773438 -1.75 10.082031 -1.117188 9.1875 -0.671875 C 8.300781 -0.222656 7.285156 0 6.140625 0 L 1.4375 0 Z M 6.046875 -1.6875 C 6.835938 -1.6875 7.53125 -1.835938 8.125 -2.140625 C 8.726562 -2.441406 9.191406 -2.867188 9.515625 -3.421875 C 9.835938 -3.984375 10 -4.632812 10 -5.375 C 10 -6.113281 9.835938 -6.757812 9.515625 -7.3125 C 9.191406 -7.875 8.726562 -8.304688 8.125 -8.609375 C 7.53125 -8.910156 6.835938 -9.0625 6.046875 -9.0625 L 3.4375 -9.0625 L 3.4375 -1.6875 Z M 6.046875 -1.6875 "/></g></g></g><g fill="#003b73" fill-opacity="1"><g transform="translate(131.066827, 14.228589)"><g><path d="M 1.4375 -10.75 L 3.4375 -10.75 L 3.4375 0 L 1.4375 0 Z M 1.4375 -10.75 "/></g></g></g><g fill="#003b73" fill-opacity="1"><g transform="translate(138.270664, 14.228589)"><g><path d="M 6.421875 0.15625 C 5.335938 0.15625 4.359375 -0.0820312 3.484375 -0.5625 C 2.609375 -1.039062 1.921875 -1.695312 1.421875 -2.53125 C 0.921875 -3.375 0.671875 -4.320312 0.671875 -5.375 C 0.671875 -6.425781 0.921875 -7.375 1.421875 -8.21875 C 1.929688 -9.0625 2.625 -9.71875 3.5 -10.1875 C 4.375 -10.664062 5.351562 -10.90625 6.4375 -10.90625 C 7.3125 -10.90625 8.113281 -10.75 8.84375 -10.4375 C 9.570312 -10.132812 10.1875 -9.691406 10.6875 -9.109375 L 9.40625 -7.890625 C 8.625 -8.734375 7.664062 -9.15625 6.53125 -9.15625 C 5.789062 -9.15625 5.128906 -8.992188 4.546875 -8.671875 C 3.960938 -8.347656 3.503906 -7.898438 3.171875 -7.328125 C 2.847656 -6.753906 2.6875 -6.101562 2.6875 -5.375 C 2.6875 -4.644531 2.847656 -3.992188 3.171875 -3.421875 C 3.503906 -2.847656 3.960938 -2.398438 4.546875 -2.078125 C 5.128906 -1.753906 5.789062 -1.59375 6.53125 -1.59375 C 7.664062 -1.59375 8.625 -2.019531 9.40625 -2.875 L 10.6875 -1.640625 C 10.1875 -1.054688 9.566406 -0.609375 8.828125 -0.296875 C 8.097656 0.00390625 7.296875 0.15625 6.421875 0.15625 Z M 6.421875 0.15625 "/></g></g></g><g fill="#003b73" fill-opacity="1"><g transform="translate(151.741395, 14.228589)"><g><path d="M 8.421875 -2.484375 L 3.046875 -2.484375 L 1.984375 0 L -0.078125 0 L 4.765625 -10.75 L 6.734375 -10.75 L 11.578125 0 L 9.484375 0 Z M 7.75 -4.0625 L 5.734375 -8.75 L 3.71875 -4.0625 Z M 7.75 -4.0625 "/></g></g></g><g fill="#003b73" fill-opacity="1"><g transform="translate(165.550052, 14.228589)"><g><path d="M 1.4375 -10.75 L 3.4375 -10.75 L 3.4375 -1.6875 L 9.0625 -1.6875 L 9.0625 0 L 1.4375 0 Z M 1.4375 -10.75 "/></g></g></g><g fill="#003b73" fill-opacity="1"><g transform="translate(177.054699, 14.228589)"><g/></g></g><g fill="#003b73" fill-opacity="1"><g transform="translate(183.598068, 14.228589)"><g><path d="M 6.421875 0.15625 C 5.335938 0.15625 4.359375 -0.0820312 3.484375 -0.5625 C 2.609375 -1.039062 1.921875 -1.695312 1.421875 -2.53125 C 0.921875 -3.375 0.671875 -4.320312 0.671875 -5.375 C 0.671875 -6.425781 0.921875 -7.375 1.421875 -8.21875 C 1.929688 -9.0625 2.625 -9.71875 3.5 -10.1875 C 4.375 -10.664062 5.351562 -10.90625 6.4375 -10.90625 C 7.3125 -10.90625 8.113281 -10.75 8.84375 -10.4375 C 9.570312 -10.132812 10.1875 -9.691406 10.6875 -9.109375 L 9.40625 -7.890625 C 8.625 -8.734375 7.664062 -9.15625 6.53125 -9.15625 C 5.789062 -9.15625 5.128906 -8.992188 4.546875 -8.671875 C 3.960938 -8.347656 3.503906 -7.898438 3.171875 -7.328125 C 2.847656 -6.753906 2.6875 -6.101562 2.6875 -5.375 C 2.6875 -4.644531 2.847656 -3.992188 3.171875 -3.421875 C 3.503906 -2.847656 3.960938 -2.398438 4.546875 -2.078125 C 5.128906 -1.753906 5.789062 -1.59375 6.53125 -1.59375 C 7.664062 -1.59375 8.625 -2.019531 9.40625 -2.875 L 10.6875 -1.640625 C 10.1875 -1.054688 9.566406 -0.609375 8.828125 -0.296875 C 8.097656 0.00390625 7.296875 0.15625 6.421875 0.15625 Z M 6.421875 0.15625 "/></g></g></g><g fill="#003b73" fill-opacity="1"><g transform="translate(197.068799, 14.228589)"><g><path d="M 9.5 -1.671875 L 9.5 0 L 1.4375 0 L 1.4375 -10.75 L 9.296875 -10.75 L 9.296875 -9.078125 L 3.4375 -9.078125 L 3.4375 -6.28125 L 8.625 -6.28125 L 8.625 -4.640625 L 3.4375 -4.640625 L 3.4375 -1.671875 Z M 9.5 -1.671875 "/></g></g></g><g fill="#003b73" fill-opacity="1"><g transform="translate(209.664008, 14.228589)"><g><path d="M 11 -10.75 L 11 0 L 9.359375 0 L 3.421875 -7.28125 L 3.421875 0 L 1.4375 0 L 1.4375 -10.75 L 3.09375 -10.75 L 9.015625 -3.46875 L 9.015625 -10.75 Z M 11 -10.75 "/></g></g></g><g fill="#003b73" fill-opacity="1"><g transform="translate(224.409622, 14.228589)"><g><path d="M 3.625 -9.0625 L 0.0625 -9.0625 L 0.0625 -10.75 L 9.1875 -10.75 L 9.1875 -9.0625 L 5.625 -9.0625 L 5.625 0 L 3.625 0 Z M 3.625 -9.0625 "/></g></g></g><g fill="#003b73" fill-opacity="1"><g transform="translate(235.960354, 14.228589)"><g><path d="M 9.5 -1.671875 L 9.5 0 L 1.4375 0 L 1.4375 -10.75 L 9.296875 -10.75 L 9.296875 -9.078125 L 3.4375 -9.078125 L 3.4375 -6.28125 L 8.625 -6.28125 L 8.625 -4.640625 L 3.4375 -4.640625 L 3.4375 -1.671875 Z M 9.5 -1.671875 "/></g></g></g><g fill="#003b73" fill-opacity="1"><g transform="translate(248.555577, 14.228589)"><g><path d="M 8.484375 0 L 6.28125 -3.15625 C 6.1875 -3.144531 6.050781 -3.140625 5.875 -3.140625 L 3.4375 -3.140625 L 3.4375 0 L 1.4375 0 L 1.4375 -10.75 L 5.875 -10.75 C 6.800781 -10.75 7.609375 -10.59375 8.296875 -10.28125 C 8.992188 -9.976562 9.523438 -9.539062 9.890625 -8.96875 C 10.253906 -8.394531 10.4375 -7.710938 10.4375 -6.921875 C 10.4375 -6.117188 10.238281 -5.425781 9.84375 -4.84375 C 9.457031 -4.257812 8.894531 -3.820312 8.15625 -3.53125 L 10.625 0 Z M 8.4375 -6.921875 C 8.4375 -7.609375 8.207031 -8.132812 7.75 -8.5 C 7.300781 -8.875 6.644531 -9.0625 5.78125 -9.0625 L 3.4375 -9.0625 L 3.4375 -4.78125 L 5.78125 -4.78125 C 6.644531 -4.78125 7.300781 -4.960938 7.75 -5.328125 C 8.207031 -5.703125 8.4375 -6.234375 8.4375 -6.921875 Z M 8.4375 -6.921875 "/></g></g></g></g></g></svg>